<?xml version="1.0" encoding="UTF-8" standalone="no"?>
<!-- Created with Inkscape (http://www.inkscape.org/) -->

<svg
   width="19.967243"
   height="19.967243"
   viewBox="0 0 5.2829998 5.2829998"
   version="1.1"
   id="svg1645"
   inkscape:export-filename="../ai_picker/images/ai_picker_store_128.png"
   inkscape:export-xdpi="615.40796"
   inkscape:export-ydpi="615.40796"
   inkscape:version="1.2.2 (b0a8486541, 2022-12-01)"
   sodipodi:docname="ai_picker_icon.svg"
   xmlns:inkscape="http://www.inkscape.org/namespaces/inkscape"
   xmlns:sodipodi="http://sodipodi.sourceforge.net/DTD/sodipodi-0.dtd"
   xmlns="http://www.w3.org/2000/svg"
   xmlns:svg="http://www.w3.org/2000/svg">
  <sodipodi:namedview
     id="namedview1647"
     pagecolor="#ffffff"
     bordercolor="#000000"
     borderopacity="0.25"
     inkscape:showpageshadow="2"
     inkscape:pageopacity="0.0"
     inkscape:pagecheckerboard="0"
     inkscape:deskcolor="#d1d1d1"
     inkscape:document-units="mm"
     showgrid="true"
     inkscape:zoom="38.63251"
     inkscape:cx="6.7559679"
     inkscape:cy="8.0760996"
     inkscape:window-width="1920"
     inkscape:window-height="998"
     inkscape:window-x="0"
     inkscape:window-y="0"
     inkscape:window-maximized="1"
     inkscape:current-layer="layer1">
    <inkscape:grid
       type="xygrid"
       id="grid4620"
       originx="0"
       originy="0" />
  </sodipodi:namedview>
  <defs
     id="defs1642" />
  <g
     inkscape:label="Layer 1"
     inkscape:groupmode="layer"
     id="layer1"
     style="display:inline"
     transform="translate(-100.6768,-130.13859)">
    <path
       style="display:none;fill:#ffffff;stroke-width:0.0369342"
       d="m 101.09866,133.11249 c -0.19277,-0.0687 -0.27707,-0.15369 -0.32343,-0.32586 -0.14012,-0.52036 0.33071,-0.88833 0.8405,-0.65688 0.20886,0.0948 0.28304,0.24315 0.26264,0.52513 -0.0127,0.17526 -0.0356,0.23654 -0.12194,0.32672 -0.16752,0.17485 -0.40308,0.22172 -0.65777,0.13089 z"
       id="path1576" />
    <path
       style="display:none;fill:#dbdbe3;stroke-width:0.0369342"
       d="m 100.67537,134.51063 0.0102,-0.53872 1.8219,-0.63976 c 1.00204,-0.35186 1.83167,-0.64953 1.84363,-0.66149 0.012,-0.012 0.0148,-0.0273 0.006,-0.0341 -0.008,-0.007 -0.84225,-0.34035 -1.85287,-0.74129 l -1.83747,-0.72897 v -0.53179 c 0,-0.41034 0.0105,-0.5277 0.0462,-0.51391 0.0254,0.01 1.22622,0.52228 2.6685,1.13879 l 2.62233,1.12092 v 0.32545 0.32545 l -2.47459,0.93557 c -1.36103,0.51456 -2.5623,0.96863 -2.66949,1.00904 l -0.19489,0.0735 z"
       id="path1578" />
    <path
       style="display:inline;fill:#a51d2d;stroke-width:0.0317624"
       d="m 100.69314,134.65176 c 0.0117,-0.28525 0.0236,-0.52166 0.0263,-0.52536 0.003,-0.004 0.77621,-0.27997 1.71876,-0.61391 0.94255,-0.33394 1.76376,-0.62536 1.8249,-0.64759 0.0611,-0.0222 0.10898,-0.0533 0.1063,-0.069 -0.006,-0.0338 0.0645,-0.005 -2.02793,-0.83729 l -1.65165,-0.65713 -0.009,-0.39587 c -0.005,-0.21772 0.002,-0.4472 0.0159,-0.50995 l 0.0247,-0.11408 2.62041,1.11838 2.62041,1.11838 v 0.3285 0.3285 l -2.58865,0.97913 c -1.42375,0.53853 -2.61414,0.98741 -2.64531,0.99752 -0.0534,0.0173 -0.0554,-0.0116 -0.0353,-0.50024 z"
       id="path1735"
       clip-path="none" />
    <path
       style="display:inline;fill:#a51d2d;stroke-width:0.0386961"
       d="m 101.10857,133.39388 c -0.28987,-0.0935 -0.42401,-0.29974 -0.42296,-0.64991 9.4e-4,-0.34276 0.34381,-0.65209 0.68682,-0.61983 0.22058,0.0207 0.4448,0.13502 0.54594,0.27821 0.0606,0.0858 0.0779,0.16769 0.0758,0.35832 -0.004,0.31041 -0.0913,0.47662 -0.31754,0.60049 -0.18788,0.10298 -0.32622,0.11084 -0.56809,0.0327 z"
       id="path1737" />
    <path
       style="display:none;fill:#e9e9f2;stroke-width:0.0236392"
       d="m 104.90079,133.15737 c -0.17876,-0.0566 -0.26148,-0.18139 -0.26083,-0.3933 5.8e-4,-0.20742 0.21202,-0.39461 0.42355,-0.37509 0.13603,0.0125 0.2743,0.0817 0.33667,0.16836 0.0374,0.0519 0.0481,0.10148 0.0467,0.21684 -0.002,0.18784 -0.0563,0.28843 -0.19582,0.36339 -0.11586,0.0623 -0.20117,0.0671 -0.35033,0.0198 z"
       id="path1737-5" />
  </g>
</svg>
