<?xml version="1.0" encoding="UTF-8" standalone="no"?>
<svg
   viewBox="0 0 220 64"
   fill="none"
   version="1.1"
   id="svg92"
   sodipodi:docname="ai_picker.svg"
   inkscape:version="1.2.2 (b0a8486541, 2022-12-01)"
   inkscape:export-filename="ai_picker.png"
   inkscape:export-xdpi="96"
   inkscape:export-ydpi="96"
   xmlns:inkscape="http://www.inkscape.org/namespaces/inkscape"
   xmlns:sodipodi="http://sodipodi.sourceforge.net/DTD/sodipodi-0.dtd"
   xmlns="http://www.w3.org/2000/svg"
   xmlns:svg="http://www.w3.org/2000/svg">
  <defs
     id="defs96" />
  <sodipodi:namedview
     id="namedview94"
     pagecolor="#ffffff"
     bordercolor="#000000"
     borderopacity="0.25"
     inkscape:showpageshadow="2"
     inkscape:pageopacity="0.0"
     inkscape:pagecheckerboard="0"
     inkscape:deskcolor="#d1d1d1"
     showgrid="false"
     inkscape:zoom="7.1636364"
     inkscape:cx="87.106599"
     inkscape:cy="40.482234"
     inkscape:window-width="1920"
     inkscape:window-height="998"
     inkscape:window-x="0"
     inkscape:window-y="0"
     inkscape:window-maximized="1"
     inkscape:current-layer="layer3" />
  <title
     id="title66">Ai.Picker Logo</title>
  <g
     inkscape:groupmode="layer"
     id="layer1"
     inkscape:label="background" />
  <!-- Wordmark group -->
  <g
     fill="currentColor"
     font-family="Inter, system-ui, '-apple-system', BlinkMacSystemFont, 'Segoe UI', sans-serif"
     font-weight="700"
     font-size="26px"
     text-rendering="geometricPrecision"
     id="g90"
     style="display:none">
    <!-- Base letters -->
    <text
       x="55.232941"
       y="39.854076"
       id="text68">A</text>
    <!-- dotless i for Ai -->
    <text
       x="74.819901"
       y="39.687149"
       id="text70">ı</text>
    <text
       x="82.859764"
       y="33.817253"
       id="text72">.</text>
    <text
       x="26.898933"
       y="31.669817"
       id="text72-6">.</text>
    <text
       x="88.819427"
       y="40.032333"
       id="text74">P</text>
    <!-- dotless i for Picker -->
    <text
       x="103.79874"
       y="40.471603"
       id="text76">ı</text>
    <text
       x="114.64486"
       y="40.139149"
       id="text78">c</text>
    <text
       x="128.64487"
       y="40.139149"
       id="text80">k</text>
    <text
       x="145.45352"
       y="40.546455"
       id="text82">e</text>
    <text
       x="160.64487"
       y="40.139149"
       id="text84">r</text>
    <!-- “Dot” on first i as > -->
    <text
       x="24.281612"
       y="46.207165"
       id="text86-3"
       transform="scale(1.08047,0.92552315)"
       style="font-size:38.9207px;stroke-width:1.49695">&gt;</text>
    <!-- “Dot” on second i as > -->
  </g>
  <path
     style="fill:#dbdbe3;stroke-width:0.139594"
     d="m 55.35349,39.753097 c 0.0025,-0.02125 1.463235,-4.184569 3.246125,-9.251828 l 3.241619,-9.213198 h 2.347816 2.347815 l 2.853033,8.096447 c 1.56917,4.453045 3.040211,8.616365 3.268981,9.251821 l 0.415947,1.155374 -2.046256,-0.03862 -2.046256,-0.03862 -0.178057,-0.558376 c -0.09793,-0.307106 -0.405301,-1.297567 -0.683045,-2.201024 l -0.504989,-1.642648 -3.428208,0.03732 -3.428208,0.03732 -0.664532,2.163705 -0.664531,2.163706 -2.04088,0.03863 c -1.122483,0.02125 -2.038852,0.02125 -2.036374,0 z m 11.302601,-7.658512 c 0,-0.15424 -2.168947,-7.364746 -2.368842,-7.875042 -0.08745,-0.223252 -0.156846,-0.111381 -0.346356,0.558376 -0.130346,0.46066 -0.672556,2.28236 -1.204911,4.048223 -0.532355,1.765863 -0.967415,3.257773 -0.966798,3.315355 6.16e-4,0.05758 1.100423,0.104696 2.444014,0.104696 1.664594,0 2.442893,-0.0483 2.442893,-0.151608 z"
     id="path1580" />
  <path
     style="fill:#dbdbe3;stroke-width:0.139594"
     d="m 76.986041,32.595178 v -7.049493 h 1.81472 1.814721 v 7.049493 7.049492 h -1.814721 -1.81472 z"
     id="path1582" />
  <path
     style="display:none;fill:#dbdbe3;stroke-width:0.139594"
     d="m 85.559226,33.862493 c -0.858548,-0.373812 -1.308415,-1.348392 -1.110181,-2.40507 0.285624,-1.522507 2.57582,-2.063876 3.762025,-0.889288 0.50665,0.501689 0.651839,1.604867 0.316761,2.406822 -0.385208,0.921932 -1.870031,1.365855 -2.968605,0.887536 z"
     id="path1584" />
  <path
     style="fill:#dbdbe3;stroke-width:0.139594"
     d="m 85.422159,30.273483 v -9.227678 l 3.873731,0.06442 c 4.194467,0.06975 4.855646,0.16619 6.21619,0.906692 1.84387,1.003559 2.88614,3.370833 2.51506,5.712361 -0.24434,1.541795 -0.67323,2.486351 -1.508,3.321118 -1.31572,1.315721 -3.100377,1.889855 -5.874489,1.889855 h -1.453456 v 3.280457 3.280457 h -1.884518 -1.884518 z m 7.276659,-0.78569 c 1.182897,-0.523252 1.607022,-1.3611 1.492248,-2.947876 -0.118376,-1.636528 -1.017265,-2.244855 -3.490296,-2.362072 l -1.509575,-0.07155 v 2.901491 2.901491 l 1.444001,-0.0737 c 0.999787,-0.05103 1.634613,-0.158014 2.063622,-0.347785 z"
     id="path1586" />
  <path
     style="fill:#dbdbe3;stroke-width:0.139594"
     d="M 101.95122,32.979005 V 25.99931 h 1.88452 1.88452 v 6.979695 6.979696 h -1.88452 -1.88452 z"
     id="path1588" />
  <path
     style="fill:#dbdbe3;stroke-width:0.139594"
     d="m 114.43702,39.756763 c -1.12839,-0.245152 -2.42326,-0.941366 -3.05844,-1.644435 -0.62283,-0.689397 -1.23047,-2.001932 -1.43233,-3.093908 -0.25049,-1.354983 -0.191,-3.649514 0.12683,-4.892207 0.61357,-2.39904 1.9591,-3.770271 4.38757,-4.471371 1.60783,-0.464183 4.4004,-0.247339 5.94997,0.462016 l 0.52616,0.24086 -0.51024,1.370834 c -0.44408,1.193114 -0.54655,1.361659 -0.79042,1.300059 -0.1541,-0.03893 -0.71855,-0.200377 -1.25432,-0.358779 -2.36501,-0.699215 -3.99255,-0.05904 -4.54946,1.789485 -0.0837,0.27775 -0.1862,1.101807 -0.22783,1.831237 -0.12705,2.225888 0.42034,3.683027 1.6369,4.357449 0.41204,0.22842 0.69618,0.26055 1.88699,0.21338 1.25324,-0.04964 1.5086,-0.107006 2.40799,-0.540915 l 1.00609,-0.485382 v 1.558877 1.558876 l -0.80266,0.357155 c -1.47947,0.658307 -3.53285,0.831307 -5.3028,0.446769 z"
     id="path1590" />
  <path
     style="fill:#dbdbe3;stroke-width:0.139594"
     d="m 124.98239,30.206575 v -9.84137 h 1.8995 1.89951 l -0.0682,5.758248 c -0.0375,3.167037 -0.11659,5.907998 -0.17575,6.091024 -0.16763,0.518607 0.13723,0.31575 0.68443,-0.455426 0.26578,-0.374565 1.53851,-1.835066 2.82829,-3.245558 l 2.34506,-2.564532 h 2.07891 2.07892 l -0.74791,0.811024 c -0.41134,0.446063 -1.67923,1.826627 -2.81751,3.06792 l -2.06961,2.256897 2.94708,3.946674 2.94708,3.946673 -1.9878,0.0389 c -1.09329,0.0214 -2.06158,0.0106 -2.15176,-0.02401 -0.0902,-0.0346 -1.05674,-1.324158 -2.14793,-2.865681 -1.09119,-1.541522 -2.01498,-2.802766 -2.05286,-2.802766 -0.0379,0 -0.44048,0.291943 -0.89465,0.648765 l -0.82578,0.648764 v 2.212911 2.21291 h -1.88452 -1.88451 z"
     id="path1592" />
  <path
     style="fill:#dbdbe3;stroke-width:0.139594"
     d="m 147.05253,40.459975 c -2.50512,-0.458962 -4.33409,-1.883233 -5.12176,-3.98847 -0.87028,-2.326049 -0.61749,-5.577246 0.59445,-7.645263 1.77867,-3.035074 6.80667,-3.787294 9.76321,-1.460638 1.33176,1.048032 1.91518,2.500413 2.01956,5.027599 l 0.0735,1.779823 h -4.55533 -4.55533 l 7.8e-4,0.45368 c 0.002,1.322198 0.89165,2.567302 2.12689,2.977584 1.30331,0.43289 3.88823,0.121468 5.86408,-0.706484 0.22323,-0.09354 0.24429,0.01841 0.24429,1.298478 v 1.400845 l -0.77617,0.290402 c -0.42689,0.159721 -1.03936,0.352758 -1.36104,0.428969 -0.83198,0.197114 -3.53419,0.286919 -4.31714,0.143475 z m 3.80207,-8.983694 c 0,-0.178007 -0.0925,-0.635145 -0.20557,-1.015863 -0.37678,-1.268776 -1.52158,-1.986541 -2.90675,-1.822487 -1.30969,0.155113 -2.17863,1.079927 -2.41352,2.568724 l -0.0936,0.593274 h 2.80972 2.80972 z"
     id="path1594" />
  <path
     style="fill:#dbdbe3;stroke-width:0.139594"
     d="m 157.6332,32.923342 v -7.054376 l 1.42705,0.03978 1.42706,0.03978 0.27478,1.15165 c 0.15113,0.633407 0.32435,1.151649 0.38492,1.151649 0.0606,0 0.5668,-0.462017 1.12494,-1.026705 0.79393,-0.803238 1.17491,-1.079326 1.75038,-1.268464 0.67007,-0.220228 2.48052,-0.328418 2.65054,-0.158392 0.0381,0.03806 0.0142,0.809838 -0.0531,1.715061 l -0.12233,1.645861 -1.04695,0.01973 c -1.79217,0.03378 -2.93158,0.572543 -3.59401,1.699413 l -0.38442,0.653949 -0.0441,4.222716 -0.0441,4.222716 h -1.87531 -1.87531 z"
     id="path1596" />
  <g
     inkscape:groupmode="layer"
     id="layer3"
     inkscape:label="logo"
     style="display:inline">
    <!-- Beta badge -->
    <g id="beta-badge" transform="translate(170, 8)">
      <rect
         x="0"
         y="0"
         width="36"
         height="14"
         rx="3"
         ry="3"
         style="fill:#a51d2d;fill-opacity:1" />
      <text
         x="18"
         y="10.5"
         style="font-family:Inter, system-ui, sans-serif;font-size:9px;font-weight:700;fill:#ffffff;text-anchor:middle">BETA</text>
    </g>
    <path
       style="display:inline;fill:#a51d2d;stroke-width:0.120047"
       d="m 28.373721,37.113611 c 0.04422,-1.07811 0.0892,-1.971628 0.0994,-1.985612 0.01134,-0.01512 2.933707,-1.058155 6.496101,-2.32029 3.562397,-1.262136 6.666177,-2.363565 6.897257,-2.447584 0.23093,-0.08391 0.4119,-0.201449 0.40177,-0.260788 -0.0227,-0.127748 0.24378,-0.0189 -7.664621,-3.16456 l -6.242456,-2.483641 -0.03402,-1.496202 c -0.0189,-0.822879 0.0076,-1.690205 0.06009,-1.92737 l 0.09336,-0.431169 9.903912,4.226948 9.903915,4.226949 v 1.241574 1.241575 l -9.78387,3.700649 c -5.38111,2.035389 -9.880222,3.731943 -9.99803,3.770154 -0.201826,0.06539 -0.209385,-0.04384 -0.133417,-1.89067 z"
       id="path1735"
       clip-path="none" />
    <path
       style="display:inline;fill:#a51d2d;stroke-width:0.146253;fill-opacity:1"
       d="m 29.94385,32.359419 c -1.095572,-0.353386 -1.602558,-1.132875 -1.598589,-2.456353 0.0036,-1.295471 1.299439,-2.464592 2.595855,-2.342664 0.833688,0.07824 1.681134,0.510312 2.063395,1.051502 0.22904,0.324284 0.294426,0.633789 0.286489,1.35428 -0.01512,1.173204 -0.345071,1.801399 -1.200152,2.269569 -0.710097,0.389216 -1.232957,0.418923 -2.147111,0.123591 z"
       id="path1737" />
    <path
       style="display:inline;fill:#a51d2d;stroke-width:0.146253"
       d="m 102.83705,23.652483 c -1.09557,-0.353386 -1.60256,-1.132875 -1.59859,-2.456353 0.004,-1.295471 1.29944,-2.464592 2.59585,-2.342664 0.83369,0.07824 1.68114,0.510312 2.0634,1.051502 0.22904,0.324284 0.29443,0.633789 0.28649,1.35428 -0.0151,1.173204 -0.34507,1.801399 -1.20015,2.269569 -0.7101,0.389216 -1.23296,0.418923 -2.14711,0.123591 z"
       id="path1737-5" />
    <path
       style="display:inline;fill:#a51d2d;stroke-width:0.146253"
       d="m 77.77906,23.259887 c -1.095572,-0.353386 -1.602558,-1.132875 -1.598589,-2.456353 0.0036,-1.295471 1.299439,-2.464592 2.595855,-2.342664 0.833688,0.07824 1.681134,0.510312 2.063395,1.051502 0.22904,0.324284 0.294426,0.633789 0.286489,1.35428 -0.01512,1.173204 -0.345071,1.801399 -1.200152,2.269569 -0.710097,0.389216 -1.232957,0.418923 -2.147111,0.123591 z"
       id="path1737-6" />
  </g>
</svg>
