<svg xmlns="http://www.w3.org/2000/svg" viewBox="0 0 30 30">
<path fill-rule="evenodd" clip-rule="evenodd" d="M0 27.2965C0 28.9363 1.06408 30 2.70357 30H10.6022C15.3144 30 19.1687 28.4056 21.7891 25.6145H0V27.2965ZM10.6022 0H2.70357C1.06408 0 0 1.06356 0 2.70334V4.3853H21.7891C19.1687 1.59431 15.3144 0 10.6022 0ZM17.4959 19.2751C17.4959 20.6017 18.3602 21.4622 19.6926 21.4622H24.4254C24.9621 20.1309 25.3224 18.6672 25.49 17.0877H19.6926C18.3602 17.0877 17.4959 17.9482 17.4959 19.2751ZM10.9355 10.737C10.9355 12.0637 11.7998 12.9242 13.1323 12.9242H25.4899C25.3223 11.3448 24.962 9.88108 24.4253 8.54975H13.1323C11.7998 8.54975 10.9355 9.41027 10.9355 10.737ZM13.1299 19.2751C13.1299 17.9482 12.2657 17.0877 10.9338 17.0877H0V21.4622H10.9338C12.2657 21.4622 13.1299 20.6017 13.1299 19.2751ZM6.56966 10.737C6.56966 9.41027 5.70539 8.54975 4.37352 8.54975H0V12.9242H4.37352C5.70539 12.9242 6.56966 12.0637 6.56966 10.737Z" fill="white"/>
</svg>