<svg xmlns="http://www.w3.org/2000/svg" data-name="Layer 2" viewBox="0 0 54 54"><g data-name="Corporate Red"><rect width="54" height="54" rx="9.74" ry="9.74" fill="none" data-name="Outline no shadow copy 14"/></g><g data-name="Live Text"><path d="M13.48 14.96h18.09v5.88H20.36v4.25h9.92v5.88h-9.92v8.77h-6.88V14.96zm20.98 5.47h6.48v19.32h-6.48V20.43zm4.35-3.57l2.31.52c.91.2 1.54-.88.9-1.56l-1.6-1.73a.942.942 0 01-.23-.85l.52-2.3c.2-.9-.88-1.53-1.57-.9l-1.74 1.6c-.23.21-.55.29-.85.23l-2.31-.52c-.91-.2-1.54.88-.9 1.56l1.6 1.73c.21.23.3.54.23.85l-.52 2.3c-.2.9.88 1.53 1.57.9l1.74-1.6c.23-.21.55-.29.85-.23z" fill="#fff" data-name="Fi with sparkle"/></g></svg>
